# Blender v2.76 (sub 0) OBJ File: ''
# www.blender.org
mtllib f.mtl
o Drawing2
v 0.160001 0.000001 -0.150001
v 0.160001 0.250001 -0.150001
v 0.160001 0.000001 -0.010001
v 0.160001 0.250001 -0.010001
v 0.150001 0.000001 -0.010001
v 0.150001 0.250001 -0.010001
v 0.150001 0.000001 -0.160001
v 0.150001 0.250001 -0.160001
v 0.355001 0.000001 -0.010001
v 0.355001 0.250001 -0.010001
v 0.010001 0.250001 -0.010001
v 0.010001 0.000001 -0.010001
v 0.010001 0.000001 -0.410001
v 0.010001 0.250001 -0.410001
v 0.158217 0.000001 -0.410001
v 0.158217 0.250001 -0.410001
v 0.158217 0.000001 -0.400001
v 0.158217 0.250001 -0.400001
v 0.010001 0.000001 -0.400001
v 0.010001 0.250001 -0.400001
v 0.010001 0.250001 -0.860001
v 0.010001 0.000001 -0.860001
v 0.365001 0.000001 -0.160001
v 0.365001 0.250001 -0.160001
v 0.365001 0.000001 -0.010001
v 0.365001 0.250001 -0.010001
v 0.355001 0.000001 -0.160001
v 0.355001 0.250001 -0.160001
v 0.555001 0.000001 -0.010001
v 0.555001 0.250001 -0.010001
v 0.565001 0.000001 -0.150001
v 0.565001 0.250001 -0.150001
v 0.565001 0.000001 -0.010001
v 0.565001 0.250001 -0.010001
v 0.555001 0.000001 -0.150001
v 0.555001 0.250001 -0.150001
v 0.460001 0.000001 -0.150001
v 0.460001 0.250001 -0.150001
v 0.660001 0.250001 -0.150001
v 0.660001 0.000001 -0.150001
v 0.460001 0.000001 -0.160001
v 0.460001 0.250001 -0.160001
v 0.660001 0.000001 -0.160001
v 0.660001 0.250001 -0.160001
v 0.755001 0.000001 -0.010001
v 0.755001 0.250001 -0.010001
v 0.755001 0.000001 -0.160001
v 0.755001 0.250001 -0.160001
v 0.765001 0.000001 -0.160001
v 0.765001 0.250001 -0.160001
v 0.765001 0.000001 -0.010001
v 0.765001 0.250001 -0.010001
v 1.010001 0.000001 -0.010001
v 1.010001 0.250001 -0.010001
v 1.010001 0.250001 -0.165001
v 1.010001 0.000001 -0.165001
v 0.860106 0.250001 -0.165001
v 0.860106 0.000001 -0.165001
v 0.860106 0.250001 -0.155001
v 0.860106 0.000001 -0.155001
v 1.010001 0.250001 -0.155001
v 1.010001 0.000001 -0.155001
v 1.010001 0.000001 -0.405001
v 1.010001 0.250001 -0.405001
v 1.010001 0.250001 -0.415001
v 1.010001 0.000001 -0.415001
v 0.859800 0.250001 -0.415001
v 0.859800 0.000001 -0.415001
v 0.859800 0.250001 -0.405001
v 0.859800 0.000001 -0.405001
v 1.010001 0.000001 -0.610001
v 1.010001 0.250001 -0.610001
v 0.510001 0.000001 -0.760001
v 0.510001 0.250001 -0.760001
v 0.510001 0.000001 -0.510001
v 0.510001 0.250001 -0.510001
v 0.500001 0.250001 -0.510001
v 0.500001 0.000001 -0.510001
v 0.500001 0.250001 -0.860001
v 0.500001 0.000001 -0.860001
v 0.760001 0.000001 -0.610001
v 0.760001 0.250001 -0.610001
v 0.760001 0.000001 -0.410001
v 0.760001 0.250001 -0.410001
v 0.750001 0.250001 -0.410001
v 0.750001 0.000001 -0.410001
v 0.750001 0.250001 -0.760001
v 0.750001 0.000001 -0.760001
v 0.510001 0.250001 -0.770001
v 0.760001 0.250001 -0.620001
v 0.760001 0.250001 -0.770001
v 1.020001 0.250001 -0.620001
v 1.020001 0.250001 -0.000001
v 0.000001 0.250001 -0.000001
v 0.260001 0.250001 -0.160001
v 0.260001 0.250001 -0.150001
v 0.000001 0.250001 -0.870001
v 0.510001 0.250001 -0.870001
v 0.760001 0.000001 -0.770001
v 0.510001 0.000001 -0.770001
v 0.760001 0.000001 -0.620001
v 1.020001 0.000001 -0.620001
v 1.020001 0.000001 -0.000001
v 0.000001 0.000001 -0.000001
v 0.000001 0.000001 -0.870001
v 0.510001 0.000001 -0.870001
v 0.260001 0.000001 -0.160001
v 0.260001 0.000001 -0.150001
v 0.660001 0.250001 -0.410001
v 0.260001 0.250001 -0.410001
v 0.660001 0.250001 -0.310001
v 0.260001 0.250001 -0.310001
v 0.660001 0.000001 -0.310001
v 0.260001 0.000001 -0.310001
v 0.660001 0.000001 -0.410001
v 0.260001 0.000001 -0.410001
vn 1.000000 0.000000 0.000000
vn -1.000000 0.000000 0.000000
vn 0.000000 0.000000 -1.000000
vn 0.000000 0.000000 1.000000
vn 0.000000 1.000000 0.000000
vn 0.000000 1.000000 0.000100
vn 0.000000 1.000000 -0.000100
vn 0.000000 -1.000000 0.000000
usemtl None
s off
f 1//1 2//1 3//1
f 3//1 2//1 4//1
f 5//2 6//2 7//2
f 7//2 6//2 8//2
f 3//3 4//3 9//3
f 9//3 4//3 10//3
f 6//3 5//3 11//3
f 11//3 5//3 12//3
f 13//3 14//3 15//3
f 15//3 14//3 16//3
f 17//4 18//4 19//4
f 19//4 18//4 20//4
f 15//1 16//1 17//1
f 17//1 16//1 18//1
f 19//1 20//1 12//1
f 12//1 20//1 11//1
f 14//1 13//1 21//1
f 21//1 13//1 22//1
f 23//1 24//1 25//1
f 25//1 24//1 26//1
f 27//3 28//3 23//3
f 23//3 28//3 24//3
f 9//2 10//2 27//2
f 27//2 10//2 28//2
f 25//3 26//3 29//3
f 29//3 26//3 30//3
f 31//1 32//1 33//1
f 33//1 32//1 34//1
f 29//2 30//2 35//2
f 35//2 30//2 36//2
f 35//4 36//4 37//4
f 37//4 36//4 38//4
f 32//4 31//4 39//4
f 39//4 31//4 40//4
f 41//3 42//3 43//3
f 43//3 42//3 44//3
f 37//2 38//2 41//2
f 41//2 38//2 42//2
f 43//1 44//1 40//1
f 40//1 44//1 39//1
f 33//3 34//3 45//3
f 45//3 34//3 46//3
f 47//3 48//3 49//3
f 49//3 48//3 50//3
f 45//2 46//2 47//2
f 47//2 46//2 48//2
f 49//1 50//1 51//1
f 51//1 50//1 52//1
f 51//3 52//3 53//3
f 53//3 52//3 54//3
f 55//3 56//3 57//3
f 57//3 56//3 58//3
f 59//4 60//4 61//4
f 61//4 60//4 62//4
f 57//2 58//2 59//2
f 59//2 58//2 60//2
f 56//2 55//2 63//2
f 63//2 55//2 64//2
f 61//2 62//2 54//2
f 54//2 62//2 53//2
f 65//3 66//3 67//3
f 67//3 66//3 68//3
f 69//4 70//4 64//4
f 64//4 70//4 63//4
f 67//2 68//2 69//2
f 69//2 68//2 70//2
f 66//2 65//2 71//2
f 71//2 65//2 72//2
f 73//1 74//1 75//1
f 75//1 74//1 76//1
f 77//4 78//4 76//4
f 76//4 78//4 75//4
f 79//2 80//2 77//2
f 77//2 80//2 78//2
f 81//1 82//1 83//1
f 83//1 82//1 84//1
f 85//4 86//4 84//4
f 84//4 86//4 83//4
f 87//2 88//2 85//2
f 85//2 88//2 86//2
f 87//5 89//5 74//5
f 74//5 89//5 79//5
f 74//5 79//5 77//5
f 85//5 82//5 87//5
f 87//5 82//5 90//5
f 87//5 90//5 91//5
f 85//5 84//5 82//5
f 82//5 72//5 90//5
f 90//5 72//5 92//5
f 92//5 72//5 65//5
f 92//5 65//5 64//5
f 64//5 65//5 67//5
f 64//5 67//5 69//5
f 92//5 64//5 93//5
f 93//5 64//5 55//5
f 93//5 55//5 61//5
f 61//5 55//5 57//5
f 61//5 57//5 59//5
f 61//5 54//5 93//5
f 93//5 54//5 52//5
f 93//6 52//6 46//6
f 46//5 52//5 48//5
f 48//5 52//5 50//5
f 46//5 34//5 93//5
f 93//6 34//6 30//6
f 93//5 30//5 94//5
f 94//5 30//5 26//5
f 94//7 26//7 10//7
f 10//5 26//5 28//5
f 28//5 26//5 24//5
f 30//5 34//5 36//5
f 36//5 34//5 32//5
f 36//5 32//5 42//5
f 42//5 32//5 44//5
f 44//5 32//5 39//5
f 42//5 38//5 36//5
f 10//5 4//5 94//5
f 94//5 4//5 6//5
f 94//5 6//5 11//5
f 4//5 2//5 6//5
f 6//5 2//5 8//5
f 8//5 2//5 95//5
f 95//5 2//5 96//5
f 11//5 20//5 94//5
f 94//5 20//5 14//5
f 94//5 14//5 97//5
f 97//5 14//5 21//5
f 97//5 21//5 79//5
f 20//5 18//5 14//5
f 14//5 18//5 16//5
f 77//5 76//5 74//5
f 89//5 98//5 79//5
f 79//5 98//5 97//5
f 91//5 89//5 87//5
f 99//8 88//8 100//8
f 100//8 88//8 73//8
f 100//8 73//8 80//8
f 80//8 73//8 78//8
f 78//8 73//8 75//8
f 99//8 101//8 88//8
f 88//8 101//8 81//8
f 88//8 81//8 86//8
f 86//8 81//8 83//8
f 81//8 101//8 71//8
f 71//8 101//8 102//8
f 71//8 102//8 66//8
f 66//8 102//8 63//8
f 66//8 63//8 70//8
f 102//8 103//8 63//8
f 63//8 103//8 56//8
f 56//8 103//8 62//8
f 56//8 62//8 60//8
f 104//8 29//8 103//8
f 103//8 29//8 33//8
f 103//8 33//8 45//8
f 105//8 13//8 104//8
f 104//8 13//8 19//8
f 104//8 19//8 12//8
f 13//8 105//8 22//8
f 22//8 105//8 106//8
f 22//8 106//8 80//8
f 80//8 106//8 100//8
f 13//8 15//8 19//8
f 19//8 15//8 17//8
f 12//8 5//8 104//8
f 104//8 5//8 3//8
f 104//8 3//8 9//8
f 3//8 5//8 1//8
f 1//8 5//8 7//8
f 1//8 7//8 107//8
f 107//8 108//8 1//8
f 27//8 23//8 9//8
f 9//8 23//8 25//8
f 9//8 25//8 104//8
f 104//8 25//8 29//8
f 33//8 29//8 31//8
f 31//8 29//8 35//8
f 31//8 35//8 43//8
f 43//8 35//8 41//8
f 41//8 35//8 37//8
f 43//8 40//8 31//8
f 47//8 49//8 45//8
f 45//8 49//8 51//8
f 45//8 51//8 103//8
f 103//8 51//8 53//8
f 103//8 53//8 62//8
f 60//8 58//8 56//8
f 70//8 68//8 66//8
f 88//4 87//4 73//4
f 73//4 87//4 74//4
f 99//1 91//1 101//1
f 101//1 91//1 90//1
f 100//3 89//3 99//3
f 99//3 89//3 91//3
f 71//4 72//4 81//4
f 81//4 72//4 82//4
f 92//3 102//3 90//3
f 90//3 102//3 101//3
f 93//1 103//1 92//1
f 92//1 103//1 102//1
f 80//4 79//4 22//4
f 22//4 79//4 21//4
f 106//1 98//1 100//1
f 100//1 98//1 89//1
f 105//3 97//3 106//3
f 106//3 97//3 98//3
f 94//4 104//4 93//4
f 93//4 104//4 103//4
f 97//2 105//2 94//2
f 94//2 105//2 104//2
f 95//3 107//3 8//3
f 8//3 107//3 7//3
f 108//4 96//4 1//4
f 1//4 96//4 2//4
f 107//1 95//1 108//1
f 108//1 95//1 96//1
f 109//5 110//5 111//5
f 111//5 110//5 112//5
f 113//8 114//8 115//8
f 115//8 114//8 116//8
f 112//4 114//4 111//4
f 111//4 114//4 113//4
f 110//2 116//2 112//2
f 112//2 116//2 114//2
f 109//3 115//3 110//3
f 110//3 115//3 116//3
f 111//1 113//1 109//1
f 109//1 113//1 115//1
